<?xml version="1.0" standalone="no"?>
<!DOCTYPE svg PUBLIC "-//W3C//DTD SVG 20010904//EN"
 "http://www.w3.org/TR/2001/REC-SVG-20010904/DTD/svg10.dtd">
<svg version="1.0" xmlns="http://www.w3.org/2000/svg"
 width="512.000000pt" height="512.000000pt" viewBox="0 0 512.000000 512.000000"
 preserveAspectRatio="xMidYMid meet">
<metadata>
Created by potrace 1.11, written by Peter Selinger 2001-2013
</metadata>
<g transform="translate(0.000000,512.000000) scale(0.100000,-0.100000)"
fill="#000000" stroke="none">
<path d="M2415 5114 c-16 -2 -73 -9 -125 -15 -259 -30 -606 -166 -793 -311
-68 -52 -204 -187 -271 -268 -157 -188 -234 -347 -306 -625 -93 -364 -52 -746
112 -1031 65 -114 118 -181 209 -270 104 -99 228 -189 330 -237 l87 -41 -56
-33 c-76 -46 -182 -134 -239 -199 l-48 -54 -49 25 c-86 44 -145 28 -167 -44
-9 -31 -8 -43 6 -70 9 -18 15 -35 12 -37 -2 -2 -22 2 -43 10 -135 47 -216 12
-200 -86 9 -54 23 -79 113 -199 88 -119 123 -176 123 -203 0 -10 -13 -57 -29
-105 -37 -106 -66 -250 -82 -397 -20 -190 17 -416 80 -486 28 -31 30 -32 69
-20 68 21 245 168 322 267 l42 54 67 -132 68 -132 -32 -35 c-74 -84 -135 -192
-135 -240 0 -66 45 -112 163 -165 79 -36 192 -45 270 -20 113 35 197 113 197
181 0 19 -17 66 -40 110 -22 43 -40 79 -40 80 0 2 19 -4 43 -12 183 -65 441
-94 681 -74 83 6 156 12 161 13 6 0 78 -16 160 -36 355 -87 622 -91 721 -12
24 19 26 26 20 60 -10 51 -126 167 -213 213 -35 18 -63 36 -63 39 0 3 29 36
64 74 73 79 131 182 162 289 l22 74 34 -54 c19 -30 45 -75 59 -99 32 -59 51
-70 87 -51 36 21 88 126 108 220 23 110 14 318 -21 475 -33 150 -93 331 -138
422 -24 46 -39 94 -46 144 -19 136 -64 225 -155 304 -46 41 -49 46 -33 56 42
25 202 166 250 220 139 159 247 388 294 624 14 69 18 139 18 305 -1 241 -9
293 -87 520 -77 224 -179 382 -368 570 -299 298 -726 455 -1225 448 -66 0
-133 -3 -150 -4z m-987 -502 c-69 -71 -138 -150 -153 -178 -15 -27 -45 -76
-65 -109 -81 -134 -167 -350 -210 -535 -25 -106 -26 -110 -36 -340 -8 -180
-18 -181 -29 -2 -12 183 20 389 92 597 66 191 154 333 318 512 71 77 188 183
202 183 3 0 -50 -58 -119 -128z m2501 -181 c156 -169 295 -641 276 -936 -18
-287 -88 -505 -232 -722 -91 -138 -300 -307 -486 -392 -214 -99 -376 -133
-718 -151 -323 -18 -623 22 -944 127 -276 90 -491 276 -623 539 -91 180 -112
266 -112 455 0 305 69 508 225 665 68 68 97 89 176 127 115 55 164 67 269 67
103 0 231 -40 328 -103 83 -54 223 -185 304 -286 97 -120 228 -326 310 -488
90 -176 125 -263 139 -341 30 -169 82 -248 202 -307 85 -42 177 -56 286 -44
147 17 262 97 331 234 30 59 35 79 34 135 0 36 -11 103 -22 150 -50 196 -48
426 4 805 42 299 66 386 131 473 35 47 75 44 122 -7z m-712 -357 c52 -37 130
-97 173 -135 43 -38 83 -69 88 -69 6 0 43 47 82 104 79 116 105 145 96 105
-18 -74 -38 -313 -43 -520 l-6 -236 -34 38 c-84 93 -215 141 -330 122 -141
-25 -263 -119 -328 -254 -19 -40 -38 -88 -41 -106 -3 -18 -9 -33 -13 -33 -3 0
-19 35 -34 78 -80 216 -260 526 -407 700 -36 44 -54 72 -43 68 10 -3 72 -21
138 -40 66 -19 172 -55 235 -81 l114 -46 17 23 c10 12 51 76 92 143 83 131
134 205 143 205 3 0 49 -30 101 -66z m198 -648 c68 -32 135 -93 168 -154 36
-67 67 -190 67 -268 0 -53 -4 -67 -26 -94 -63 -75 -179 -105 -377 -98 -145 6
-218 25 -292 76 -60 42 -71 72 -57 154 24 138 89 263 173 330 96 77 245 101
344 54z m-319 -642 c100 -30 340 -24 439 12 16 6 15 1 -8 -24 -62 -66 -219
-108 -343 -91 -100 13 -215 83 -250 151 l-15 29 59 -30 c32 -16 85 -37 118
-47z m-1366 -489 c0 -1 -36 -40 -80 -86 -129 -135 -408 -506 -445 -591 -26
-60 -16 3 14 87 55 155 72 191 127 273 100 147 314 338 364 325 11 -3 20 -6
20 -8z m139 -287 c70 -145 142 -231 257 -307 77 -50 197 -95 288 -106 l49 -7
-34 -20 c-138 -82 -197 -251 -147 -418 49 -162 260 -242 441 -166 49 20 100
75 133 143 26 52 29 68 29 153 -1 83 -4 102 -28 152 -33 67 -99 130 -163 154
l-45 17 68 22 c177 56 291 163 353 328 l10 29 64 -59 c76 -69 152 -117 244
-151 55 -21 85 -25 172 -26 58 -1 115 3 126 7 20 7 23 2 42 -70 34 -127 45
-220 39 -343 -6 -128 -35 -283 -75 -405 -32 -97 -135 -257 -214 -332 -96 -90
-295 -176 -518 -224 -92 -20 -134 -23 -350 -24 -203 0 -260 3 -330 19 -138 30
-312 91 -455 160 -121 58 -160 68 -139 35 3 -6 34 -29 68 -50 l61 -39 -41 0
c-26 0 -51 7 -66 19 -27 21 -120 194 -138 257 -12 41 -12 42 47 140 94 155
147 263 236 479 60 146 88 203 104 211 17 8 20 13 11 22 -17 17 -42 15 -67 -5
-11 -10 -50 -90 -86 -178 -177 -431 -311 -637 -564 -862 -107 -96 -138 -115
-151 -93 -36 59 -65 322 -49 455 33 280 109 513 222 679 102 151 318 373 462
475 39 28 71 50 72 51 1 0 29 -55 62 -122z m-607 -4 c49 -25 30 -49 -49 -60
-45 -6 -52 -4 -62 14 -8 14 -8 29 -1 47 9 25 14 27 47 20 21 -4 50 -13 65 -21z
m2688 -276 c61 -185 84 -316 83 -493 0 -82 -5 -172 -12 -200 -12 -52 -71 -185
-82 -185 -4 0 -17 24 -29 53 -12 28 -38 78 -58 110 l-35 58 -2 222 c-1 228
-10 296 -59 435 l-14 39 39 36 c40 38 78 103 80 134 1 27 45 -76 89 -209z
m-2865 136 c34 -10 52 -19 42 -22 -10 -2 -39 3 -64 12 -63 22 -119 21 -132 -1
-14 -26 -25 -9 -11 17 10 19 18 22 58 18 26 -3 74 -13 107 -24z m1571 -299
c67 -20 127 -73 161 -143 23 -49 27 -69 28 -147 0 -79 -3 -97 -28 -147 -51
-104 -143 -155 -266 -146 -135 10 -208 78 -241 222 -20 92 20 233 86 300 67
66 165 90 260 61z m900 -1065 c80 -36 187 -121 208 -164 17 -36 13 -42 -34
-51 -33 -6 -36 -4 -54 30 -26 48 -87 102 -143 126 -59 25 -81 19 -28 -8 22
-12 57 -37 78 -58 37 -36 84 -114 70 -116 -52 -4 -221 5 -308 17 -127 17 -297
59 -275 67 8 3 56 18 105 32 108 32 215 81 270 123 22 17 41 31 43 31 1 1 32
-12 68 -29z m-1625 -88 c36 -30 109 -173 109 -214 0 -26 -52 -98 -70 -98 -5 0
-12 21 -16 48 -11 79 -72 222 -94 222 -4 0 3 -28 15 -62 31 -87 52 -225 36
-241 -18 -18 -188 -13 -235 7 -30 13 -36 19 -31 38 2 13 11 53 20 91 8 37 26
90 41 118 37 73 22 72 -26 -2 -38 -59 -70 -141 -70 -181 0 -10 -6 -18 -14 -18
-23 0 -76 50 -76 71 0 39 79 170 132 220 26 26 33 27 138 27 104 1 111 0 141
-26z"/>
<path d="M3910 3926 c-34 -19 -66 -79 -87 -162 -26 -105 -25 -465 1 -552 22
-73 62 -122 100 -122 100 0 174 220 163 485 -6 154 -39 265 -96 325 -42 44
-45 45 -81 26z m39 -112 c25 -32 28 -92 6 -134 -40 -78 -115 14 -85 104 10 32
32 55 52 56 4 0 16 -12 27 -26z"/>
<path d="M1945 3642 c-78 -37 -124 -135 -132 -283 -9 -157 35 -358 104 -478
123 -213 319 -236 405 -47 21 47 23 64 22 211 -1 142 -4 169 -27 246 -36 119
-66 183 -120 255 -70 95 -171 133 -252 96z m101 -156 c26 -26 34 -42 34 -71 0
-49 -53 -105 -99 -105 -65 0 -111 45 -111 107 1 60 46 102 109 103 25 0 42 -9
67 -34z"/>
<path d="M3501 1681 c-47 -47 -77 -123 -90 -228 -16 -139 17 -254 94 -321 55
-49 106 -40 172 30 88 93 104 309 33 455 -35 70 -77 103 -134 103 -29 0 -44
-8 -75 -39z m121 2 c19 -12 40 -41 60 -83 27 -56 32 -79 36 -166 6 -125 -14
-202 -62 -250 -117 -117 -229 30 -205 267 12 127 45 206 97 234 35 18 38 18
74 -2z"/>
</g>
</svg>
